<svg width="24" height="24" viewBox="0 0 24 24" fill="none" xmlns="http://www.w3.org/2000/svg">
<path d="M5.45075 5.03301C5.13496 4.26829 5.1476 3.3945 5.2878 2.59502C6.25279 2.87017 7.15923 3.3043 7.96567 3.87754C8.31935 4.13405 8.78292 4.21675 9.21492 4.09329C10.3232 3.77784 11.4746 3.61952 12.6317 3.62343C13.8456 3.62343 14.9988 3.79124 16.046 4.09209C16.478 4.21675 16.9416 4.13285 17.294 3.87634C18.1 3.30322 19.006 2.8691 19.9706 2.59382C20.1108 3.3933 20.1222 4.26709 19.8089 5.03062C19.6194 5.49089 19.7142 6.02068 20.0716 6.39704C20.9861 7.35954 21.4737 8.46586 21.4737 9.61654C21.4737 12.1504 18.9853 14.6352 14.9887 15.3915C13.9883 15.5809 13.598 16.7759 14.3635 17.4603C14.8548 17.899 15.158 18.5175 15.158 19.2055V22.8014C15.158 23.1193 15.2911 23.4241 15.528 23.6489C15.7649 23.8737 16.0861 24 16.4211 24C16.7562 24 17.0774 23.8737 17.3143 23.6489C17.5512 23.4241 17.6843 23.1193 17.6843 22.8014V19.2055C17.6843 18.5223 17.5327 17.8726 17.2624 17.2841C21.0733 16.0292 24 13.204 24 9.61654C24 8.002 23.3886 6.5181 22.3743 5.27513C22.6396 4.29226 22.6156 3.3022 22.5145 2.54228C22.4249 1.86146 22.2998 0.969685 21.7946 0.437497C21.043 -0.352394 19.7988 0.112671 18.9146 0.399141C17.9656 0.702655 17.0631 1.12382 16.2304 1.6517C15.0545 1.36652 13.8454 1.22355 12.6317 1.22619C11.3762 1.22619 10.1648 1.37602 9.0305 1.6529C8.19781 1.12502 7.29528 0.703854 6.34632 0.40034C5.46212 0.112671 4.21666 -0.352394 3.46509 0.437497C2.94973 0.979274 2.84236 1.80033 2.75015 2.49793L2.74384 2.54348C2.64278 3.3046 2.62005 4.29586 2.88531 5.27993C1.87479 6.5217 1.26343 8.0032 1.26343 9.61654C1.26343 13.2028 4.19013 16.0292 8.00104 17.2841C7.72568 17.8827 7.58211 18.5284 7.57915 19.1815L7.36694 19.2223C6.46126 19.341 5.88148 19.2343 5.48738 19.0761C4.52739 18.6901 4.03224 17.718 3.42846 16.9749C3.05204 16.5134 2.50384 15.9369 1.66259 15.6708C1.50517 15.621 1.33897 15.6012 1.17347 15.6124C1.00798 15.6236 0.846428 15.6657 0.698051 15.7361C0.398391 15.8784 0.170572 16.1278 0.06471 16.4295C-0.041152 16.7312 -0.0163846 17.0604 0.133564 17.3448C0.283512 17.6291 0.546358 17.8453 0.864279 17.9458C1.56911 18.1687 2.05669 19.3146 2.50384 19.8228C2.97499 20.3598 3.60151 20.9207 4.4996 21.2827C5.36107 21.6303 6.37284 21.7538 7.57915 21.6135V22.8014C7.57915 23.1193 7.71223 23.4241 7.94911 23.6489C8.186 23.8737 8.50728 24 8.84229 24C9.17729 24 9.49858 23.8737 9.73547 23.6489C9.97235 23.4241 10.1054 23.1193 10.1054 22.8014V19.2055C10.1054 18.5175 10.4086 17.899 10.8999 17.4603C11.6667 16.7747 11.2751 15.5809 10.2747 15.3915C6.27685 14.6352 3.78972 12.1504 3.78972 9.61654C3.78972 8.46826 4.27603 7.36193 5.18928 6.39944C5.54675 6.02307 5.64022 5.49328 5.45075 5.03301Z" fill="#FEFEFE"/>
</svg>
