<svg width="24" height="24" viewBox="0 0 24 24" fill="none" xmlns="http://www.w3.org/2000/svg">
<path d="M5.03673 2.66733C5.03639 3.37457 4.77075 4.05271 4.29822 4.55256C3.8257 5.0524 3.18502 5.33302 2.5171 5.33266C1.84919 5.33231 1.20877 5.05102 0.736721 4.55067C0.264673 4.05032 -0.00033364 3.37191 3.15251e-07 2.66466C0.000334271 1.95742 0.265981 1.27928 0.738502 0.779435C1.21102 0.279588 1.85171 -0.00102467 2.51962 -0.000671053C3.18753 -0.000317431 3.82796 0.280973 4.30001 0.78132C4.77205 1.28167 5.03706 1.96008 5.03673 2.66733ZM5.11228 7.30733H0.0755511V24.0007H5.11228V7.30733ZM13.0703 7.30733H8.05876V24.0007H13.0199V15.2407C13.0199 10.3607 19.0262 9.90733 19.0262 15.2407V24.0007H24V13.4273C24 5.20066 15.1102 5.50733 13.0199 9.54733L13.0703 7.30733Z" fill="#FEFEFE"/>
</svg>
