<svg width="24" height="22" viewBox="0 0 24 22" fill="none" xmlns="http://www.w3.org/2000/svg">
<path d="M20.5091 21.6L17.6182 18.7636H6C4.32727 18.7636 2.90909 18.1818 1.74545 17.0182C0.581818 15.8545 0 14.4364 0 12.7636C0 11.3673 0.432727 10.1236 1.29818 9.03273C2.16364 7.93454 3.27636 7.23273 4.63636 6.92727C4.69455 6.78182 4.74909 6.64 4.8 6.50182C4.87273 6.36364 4.92727 6.21455 4.96364 6.05455L0.436364 1.52727L1.96364 0L22.0364 20.0727M6 16.5818H15.4364L6.65455 7.8C6.61818 8.00364 6.59273 8.20364 6.57818 8.4C6.55636 8.56727 6.54545 8.74909 6.54545 8.94545H6C4.94545 8.94545 4.04727 9.32 3.30545 10.0691C2.55636 10.8109 2.18182 11.7091 2.18182 12.7636C2.18182 13.8182 2.55636 14.7273 3.30545 15.4909C4.04727 16.2182 4.94545 16.5818 6 16.5818ZM22.4727 17.4L20.8909 15.8727C21.2036 15.6182 21.4364 15.3236 21.5891 14.9891C21.7418 14.6545 21.8182 14.2764 21.8182 13.8545C21.8182 13.0909 21.5527 12.4473 21.0218 11.9236C20.4982 11.3927 19.8545 11.1273 19.0909 11.1273H17.4545V8.94545C17.4545 7.44 16.9236 6.15273 15.8618 5.08364C14.8 4.02182 13.5127 3.49091 12 3.49091C11.5127 3.49091 11.04 3.54909 10.5818 3.66545C10.1236 3.78909 9.68727 3.97818 9.27273 4.23273L7.69091 2.65091C8.33091 2.21455 9.00727 1.88 9.72 1.64727C10.44 1.42182 11.2 1.30909 12 1.30909C14.1309 1.30909 15.9345 2.05091 17.4109 3.53455C18.8945 5.01091 19.6364 6.81454 19.6364 8.94545C20.8945 9.09091 21.9345 9.63636 22.7564 10.5818C23.5855 11.5127 24 12.6036 24 13.8545C24 14.5818 23.8655 15.24 23.5964 15.8291C23.32 16.44 22.9455 16.9636 22.4727 17.4Z" fill="#124559"/>
</svg>
