<svg width="264" height="100" viewBox="0 0 264 100" fill="none" xmlns="http://www.w3.org/2000/svg">
<path d="M81.4736 45.7342V32.3077H90.3566V34.6481H84.3098V37.8474H89.767V40.1879H84.3098V45.7342H81.4736Z" fill="#2B2B2B"/>
<path d="M92.2643 45.7342V32.3077H101.304V34.6481H95.1005V37.8474H100.839V40.1879H95.1005V43.3938H101.331V45.7342H92.2643Z" fill="#2B2B2B"/>
<path d="M103.559 45.7342V32.3077H108.853C109.866 32.3077 110.73 32.4891 111.447 32.8518C112.167 33.2102 112.715 33.7194 113.091 34.3794C113.47 35.035 113.66 35.8064 113.66 36.6936C113.66 37.5852 113.468 38.3523 113.084 38.9948C112.7 39.6328 112.143 40.1224 111.414 40.4633C110.689 40.8042 109.811 40.9746 108.78 40.9746H105.236V38.6931H108.321C108.863 38.6931 109.313 38.6188 109.671 38.4703C110.029 38.3217 110.296 38.0988 110.471 37.8015C110.65 37.5044 110.739 37.1351 110.739 36.6936C110.739 36.2478 110.65 35.8719 110.471 35.566C110.296 35.2601 110.027 35.0284 109.665 34.8711C109.307 34.7094 108.855 34.6284 108.308 34.6284H106.396V45.7342H103.559ZM110.805 39.6241L114.139 45.7342H111.008L107.745 39.6241H110.805Z" fill="#2B2B2B"/>
<path d="M115.665 45.7342V32.3077H120.958C121.971 32.3077 122.836 32.4891 123.552 32.8518C124.273 33.2102 124.821 33.7194 125.197 34.3794C125.576 35.035 125.766 35.8064 125.766 36.6936C125.766 37.5852 125.574 38.3523 125.19 38.9948C124.805 39.6328 124.249 40.1224 123.519 40.4633C122.795 40.8042 121.917 40.9746 120.886 40.9746H117.342V38.6931H120.427C120.969 38.6931 121.419 38.6188 121.777 38.4703C122.135 38.3217 122.402 38.0988 122.576 37.8015C122.755 37.5044 122.845 37.1351 122.845 36.6936C122.845 36.2478 122.755 35.8719 122.576 35.566C122.402 35.2601 122.133 35.0284 121.771 34.8711C121.413 34.7094 120.961 34.6284 120.414 34.6284H118.502V45.7342H115.665ZM122.911 39.6241L126.245 45.7342H123.114L119.851 39.6241H122.911Z" fill="#2B2B2B"/>
<path d="M127.771 45.7342V32.3077H136.811V34.6481H130.608V37.8474H136.346V40.1879H130.608V43.3938H136.837V45.7342H127.771Z" fill="#2B2B2B"/>
<path d="M141.902 32.3077V45.7342H139.066V32.3077H141.902Z" fill="#2B2B2B"/>
<path d="M144.236 45.7342V32.3077H149.529C150.543 32.3077 151.407 32.4891 152.124 32.8518C152.844 33.2102 153.392 33.7194 153.768 34.3794C154.147 35.035 154.337 35.8064 154.337 36.6936C154.337 37.5852 154.145 38.3523 153.761 38.9948C153.376 39.6328 152.82 40.1224 152.091 40.4633C151.366 40.8042 150.488 40.9746 149.457 40.9746H145.913V38.6931H148.998C149.54 38.6931 149.99 38.6188 150.348 38.4703C150.706 38.3217 150.972 38.0988 151.147 37.8015C151.326 37.5044 151.416 37.1351 151.416 36.6936C151.416 36.2478 151.326 35.8719 151.147 35.566C150.972 35.2601 150.704 35.0284 150.341 34.8711C149.984 34.7094 149.531 34.6284 148.985 34.6284H147.073V45.7342H144.236ZM151.481 39.6241L154.815 45.7342H151.685L148.422 39.6241H151.481Z" fill="#2B2B2B"/>
<path d="M158.655 45.7342H155.615L160.246 32.3077H163.901L168.527 45.7342H165.487L162.126 35.3758H162.021L158.655 45.7342ZM158.465 40.4568H165.644V42.6726H158.465V40.4568Z" fill="#2B2B2B"/>
<path d="M81.4736 63.5804V50.1539H90.3566V52.4943H84.3098V55.6936H89.767V58.0341H84.3098V63.5804H81.4736Z" fill="#2B2B2B"/>
<path d="M92.0498 63.5804V53.5104H94.7554V55.2674H94.8599C95.0436 54.6424 95.351 54.1704 95.7838 53.8514C96.2157 53.528 96.7138 53.3662 97.2772 53.3662C97.4171 53.3662 97.5678 53.375 97.7292 53.3924C97.8906 53.41 98.0328 53.434 98.155 53.4646V55.9428C98.0243 55.9034 97.8429 55.8684 97.6116 55.8378C97.3802 55.8072 97.1681 55.7919 96.9759 55.7919C96.5655 55.7919 96.1988 55.8815 95.8753 56.0607C95.5563 56.2355 95.3034 56.4803 95.1159 56.795C94.9322 57.1097 94.8407 57.4724 94.8407 57.8833V63.5804H92.0498Z" fill="#2B2B2B"/>
<path d="M103.676 63.7771C102.658 63.7771 101.778 63.5608 101.036 63.1281C100.298 62.691 99.7275 62.0835 99.3263 61.3055C98.9243 60.5232 98.723 59.6162 98.723 58.5848C98.723 57.5446 98.9243 56.6355 99.3263 55.8575C99.7275 55.0752 100.298 54.4677 101.036 54.035C101.778 53.5979 102.658 53.3794 103.676 53.3794C104.694 53.3794 105.571 53.5979 106.309 54.035C107.052 54.4677 107.624 55.0752 108.026 55.8575C108.427 56.6355 108.628 57.5446 108.628 58.5848C108.628 59.6162 108.427 60.5232 108.026 61.3055C107.624 62.0835 107.052 62.691 106.309 63.1281C105.571 63.5608 104.694 63.7771 103.676 63.7771ZM103.689 61.6136C104.152 61.6136 104.538 61.4825 104.848 61.2203C105.159 60.9537 105.392 60.5909 105.549 60.132C105.71 59.6731 105.791 59.1508 105.791 58.5652C105.791 57.9795 105.71 57.4572 105.549 56.9982C105.392 56.5393 105.159 56.1765 104.848 55.91C104.538 55.6434 104.152 55.5101 103.689 55.5101C103.222 55.5101 102.828 55.6434 102.51 55.91C102.196 56.1765 101.957 56.5393 101.796 56.9982C101.638 57.4572 101.56 57.9795 101.56 58.5652C101.56 59.1508 101.638 59.6731 101.796 60.132C101.957 60.5909 102.196 60.9537 102.51 61.2203C102.828 61.4825 103.222 61.6136 103.689 61.6136Z" fill="#2B2B2B"/>
<path d="M113.233 57.7588V63.5804H110.443V53.5105H113.102V55.2872H113.22C113.443 54.7015 113.816 54.2382 114.341 53.8973C114.864 53.552 115.5 53.3794 116.247 53.3794C116.945 53.3794 117.554 53.5323 118.074 53.8383C118.594 54.1442 118.998 54.5813 119.286 55.1495C119.574 55.7133 119.719 56.3864 119.719 57.1687V63.5804H116.928V57.6669C116.932 57.0507 116.775 56.5699 116.456 56.2246C116.138 55.875 115.699 55.7002 115.139 55.7002C114.764 55.7002 114.432 55.781 114.144 55.9428C113.86 56.1045 113.637 56.3405 113.476 56.6508C113.318 56.9567 113.238 57.3261 113.233 57.7588Z" fill="#2B2B2B"/>
<path d="M127.269 53.5104V55.6084H121.21V53.5104H127.269ZM122.586 51.0979H125.376V60.486C125.376 60.7438 125.416 60.9449 125.495 61.0891C125.573 61.229 125.682 61.3274 125.822 61.3841C125.966 61.441 126.132 61.4694 126.32 61.4694C126.451 61.4694 126.582 61.4584 126.713 61.4366C126.844 61.4104 126.944 61.3907 127.014 61.3776L127.453 63.4558C127.313 63.4995 127.117 63.5498 126.864 63.6066C126.61 63.6678 126.303 63.705 125.94 63.7181C125.267 63.7443 124.678 63.6547 124.171 63.4493C123.669 63.2438 123.278 62.9248 122.999 62.4921C122.719 62.0594 122.582 61.5131 122.586 60.8531V51.0979Z" fill="#2B2B2B"/>
<path d="M133.409 63.5804V50.1539H142.45V52.4943H136.246V55.6936H141.985V58.0341H136.246V61.24H142.476V63.5804H133.409Z" fill="#2B2B2B"/>
<path d="M147.443 57.7588V63.5804H144.652V53.5105H147.312V55.2872H147.43C147.653 54.7015 148.026 54.2382 148.549 53.8973C149.074 53.552 149.709 53.3794 150.456 53.3794C151.155 53.3794 151.764 53.5323 152.283 53.8383C152.804 54.1442 153.207 54.5813 153.496 55.1495C153.784 55.7133 153.928 56.3864 153.928 57.1687V63.5804H151.137V57.6669C151.142 57.0507 150.984 56.5699 150.665 56.2246C150.347 55.875 149.908 55.7002 149.349 55.7002C148.974 55.7002 148.642 55.781 148.353 55.9428C148.069 56.1045 147.847 56.3405 147.685 56.6508C147.528 56.9567 147.447 57.3261 147.443 57.7588Z" fill="#2B2B2B"/>
<path d="M159.835 63.7443C159.071 63.7443 158.379 63.5476 157.758 63.1543C157.143 62.7566 156.654 62.1731 156.291 61.4039C155.933 60.6303 155.754 59.6819 155.754 58.5586C155.754 57.4047 155.94 56.4454 156.311 55.6806C156.682 54.9113 157.176 54.3366 157.791 53.9563C158.412 53.5717 159.09 53.3794 159.828 53.3794C160.392 53.3794 160.861 53.4756 161.237 53.6679C161.617 53.8558 161.923 54.0918 162.154 54.3759C162.39 54.6556 162.569 54.9309 162.691 55.2019H162.777V50.1539H165.561V63.5804H162.809V61.9677H162.691C162.56 62.2474 162.375 62.5249 162.134 62.8003C161.899 63.0713 161.591 63.2963 161.211 63.4756C160.835 63.6547 160.377 63.7443 159.835 63.7443ZM160.72 61.5219C161.169 61.5219 161.549 61.3995 161.86 61.1547C162.174 60.9056 162.414 60.5582 162.58 60.1123C162.75 59.6666 162.835 59.1443 162.835 58.5455C162.835 57.9467 162.752 57.4266 162.587 56.9852C162.421 56.5437 162.18 56.2028 161.866 55.9624C161.551 55.722 161.169 55.6019 160.72 55.6019C160.261 55.6019 159.874 55.7264 159.56 55.9756C159.246 56.2246 159.007 56.5699 158.846 57.0114C158.684 57.4528 158.604 57.9642 158.604 58.5455C158.604 59.1312 158.684 59.649 158.846 60.0993C159.012 60.545 159.25 60.8947 159.56 61.1482C159.874 61.3973 160.261 61.5219 160.72 61.5219Z" fill="#2B2B2B"/>
<path d="M176.932 63.5804H172.177V50.1539H176.971C178.321 50.1539 179.483 50.4226 180.457 50.9603C181.431 51.4935 182.18 52.2605 182.704 53.2614C183.232 54.2623 183.496 55.4598 183.496 56.854C183.496 58.2526 183.232 59.4546 182.704 60.4598C182.18 61.465 181.426 62.2365 180.443 62.774C179.466 63.3116 178.295 63.5804 176.932 63.5804ZM175.013 61.1482H176.815C177.653 61.1482 178.358 60.9996 178.931 60.7024C179.507 60.4008 179.939 59.9353 180.227 59.306C180.52 58.6723 180.666 57.855 180.666 56.854C180.666 55.862 180.52 55.0512 180.227 54.4218C179.939 53.7924 179.509 53.3291 178.937 53.0319C178.365 52.7347 177.659 52.5861 176.821 52.5861H175.013V61.1482Z" fill="#2B2B2B"/>
<path d="M190.13 63.7771C189.096 63.7771 188.205 63.5673 187.458 63.1477C186.715 62.7238 186.143 62.125 185.741 61.3514C185.34 60.5735 185.139 59.6534 185.139 58.5913C185.139 57.5555 185.34 56.6464 185.741 55.8641C186.143 55.0817 186.709 54.472 187.439 54.035C188.172 53.5979 189.032 53.3794 190.02 53.3794C190.683 53.3794 191.301 53.4865 191.873 53.7006C192.45 53.9104 192.952 54.2273 193.38 54.6512C193.812 55.0752 194.149 55.6084 194.388 56.2509C194.629 56.889 194.749 57.6364 194.749 58.493V59.2601H186.253V57.5293H192.122C192.122 57.1272 192.035 56.771 191.86 56.4607C191.685 56.1504 191.443 55.9078 191.132 55.7329C190.827 55.5538 190.471 55.4642 190.065 55.4642C189.641 55.4642 189.266 55.5625 188.938 55.7592C188.615 55.9515 188.362 56.2115 188.179 56.5393C187.995 56.8628 187.901 57.2233 187.897 57.6211V59.2666C187.897 59.7649 187.989 60.1954 188.172 60.5582C188.359 60.9209 188.624 61.2006 188.964 61.3973C189.305 61.594 189.709 61.6923 190.176 61.6923C190.487 61.6923 190.77 61.6486 191.028 61.5612C191.285 61.4738 191.506 61.3427 191.69 61.1679C191.873 60.993 192.013 60.7789 192.109 60.5254L194.69 60.6958C194.559 61.3165 194.29 61.8584 193.884 62.3217C193.482 62.7806 192.963 63.139 192.325 63.3969C191.692 63.6504 190.96 63.7771 190.13 63.7771Z" fill="#2B2B2B"/>
<path d="M205.68 53.5104L202.163 63.5804H199.019L195.501 53.5104H198.448L200.538 60.7154H200.643L202.726 53.5104H205.68Z" fill="#2B2B2B"/>
<path d="M211.369 63.7771C210.335 63.7771 209.444 63.5673 208.697 63.1477C207.954 62.7238 207.383 62.125 206.981 61.3514C206.579 60.5735 206.378 59.6534 206.378 58.5913C206.378 57.5555 206.579 56.6464 206.981 55.8641C207.383 55.0817 207.948 54.472 208.677 54.035C209.411 53.5979 210.271 53.3794 211.258 53.3794C211.922 53.3794 212.54 53.4865 213.112 53.7006C213.688 53.9104 214.191 54.2273 214.619 54.6512C215.051 55.0752 215.388 55.6084 215.628 56.2509C215.868 56.889 215.988 57.6364 215.988 58.493V59.2601H207.492V57.5293H213.361C213.361 57.1272 213.274 56.771 213.099 56.4607C212.924 56.1504 212.682 55.9078 212.372 55.7329C212.067 55.5538 211.71 55.4642 211.304 55.4642C210.881 55.4642 210.505 55.5625 210.177 55.7592C209.855 55.9515 209.601 56.2115 209.418 56.5393C209.234 56.8628 209.14 57.2233 209.136 57.6211V59.2666C209.136 59.7649 209.227 60.1954 209.411 60.5582C209.599 60.9209 209.863 61.2006 210.203 61.3973C210.544 61.594 210.948 61.6923 211.416 61.6923C211.725 61.6923 212.01 61.6486 212.267 61.5612C212.525 61.4738 212.745 61.3427 212.929 61.1679C213.112 60.993 213.252 60.7789 213.348 60.5254L215.929 60.6958C215.798 61.3165 215.529 61.8584 215.123 62.3217C214.721 62.7806 214.202 63.139 213.564 63.3969C212.931 63.6504 212.2 63.7771 211.369 63.7771Z" fill="#2B2B2B"/>
<path d="M220.6 50.1539V63.5804H217.809V50.1539H220.6Z" fill="#2B2B2B"/>
<path d="M227.381 63.7771C226.364 63.7771 225.484 63.5608 224.741 63.1281C224.003 62.691 223.434 62.0835 223.032 61.3055C222.63 60.5232 222.429 59.6162 222.429 58.5848C222.429 57.5446 222.63 56.6355 223.032 55.8575C223.434 55.0752 224.003 54.4677 224.741 54.035C225.484 53.5979 226.364 53.3794 227.381 53.3794C228.399 53.3794 229.277 53.5979 230.015 54.035C230.757 54.4677 231.329 55.0752 231.731 55.8575C232.133 56.6355 232.334 57.5446 232.334 58.5848C232.334 59.6162 232.133 60.5232 231.731 61.3055C231.329 62.0835 230.757 62.691 230.015 63.1281C229.277 63.5608 228.399 63.7771 227.381 63.7771ZM227.394 61.6136C227.857 61.6136 228.244 61.4825 228.554 61.2203C228.864 60.9537 229.098 60.5909 229.254 60.132C229.417 59.6731 229.497 59.1508 229.497 58.5652C229.497 57.9795 229.417 57.4572 229.254 56.9982C229.098 56.5393 228.864 56.1765 228.554 55.91C228.244 55.6434 227.857 55.5101 227.394 55.5101C226.927 55.5101 226.534 55.6434 226.215 55.91C225.901 56.1765 225.663 56.5393 225.501 56.9982C225.344 57.4572 225.265 57.9795 225.265 58.5652C225.265 59.1508 225.344 59.6731 225.501 60.132C225.663 60.5909 225.901 60.9537 226.215 61.2203C226.534 61.4825 226.927 61.6136 227.394 61.6136Z" fill="#2B2B2B"/>
<path d="M234.148 67.3566V53.5105H236.899V55.2019H237.024C237.147 54.9309 237.323 54.6556 237.555 54.3759C237.791 54.0918 238.096 53.8558 238.472 53.6679C238.851 53.4755 239.323 53.3794 239.887 53.3794C240.62 53.3794 241.297 53.5717 241.918 53.9563C242.538 54.3365 243.034 54.9113 243.405 55.6805C243.776 56.4454 243.961 57.4047 243.961 58.5585C243.961 59.6819 243.78 60.6302 243.418 61.4039C243.06 62.1731 242.57 62.7565 241.951 63.1543C241.334 63.5476 240.645 63.7443 239.88 63.7443C239.339 63.7443 238.878 63.6547 238.498 63.4755C238.122 63.2963 237.815 63.0712 237.574 62.8002C237.334 62.5249 237.151 62.2474 237.024 61.9677H236.939V67.3566H234.148ZM236.88 58.5455C236.88 59.1442 236.963 59.6665 237.129 60.1123C237.295 60.5582 237.535 60.9056 237.849 61.1547C238.164 61.3995 238.546 61.5219 238.996 61.5219C239.45 61.5219 239.835 61.3973 240.149 61.1482C240.463 60.8947 240.702 60.545 240.863 60.0992C241.029 59.649 241.112 59.1312 241.112 58.5455C241.112 57.9642 241.031 57.4528 240.869 57.0114C240.708 56.5699 240.469 56.2246 240.155 55.9755C239.841 55.7264 239.454 55.6019 238.996 55.6019C238.542 55.6019 238.157 55.722 237.843 55.9624C237.533 56.2028 237.295 56.5437 237.129 56.9852C236.963 57.4265 236.88 57.9467 236.88 58.5455Z" fill="#2B2B2B"/>
<path d="M250.407 63.7771C249.372 63.7771 248.481 63.5673 247.734 63.1477C246.992 62.7238 246.42 62.125 246.018 61.3514C245.616 60.5735 245.415 59.6534 245.415 58.5913C245.415 57.5555 245.616 56.6464 246.018 55.8641C246.42 55.0817 246.986 54.472 247.715 54.035C248.448 53.5979 249.309 53.3794 250.295 53.3794C250.96 53.3794 251.577 53.4865 252.149 53.7006C252.726 53.9104 253.228 54.2273 253.657 54.6512C254.089 55.0752 254.425 55.6084 254.665 56.2509C254.906 56.889 255.026 57.6364 255.026 58.493V59.2601H246.529V57.5293H252.398C252.398 57.1272 252.312 56.771 252.136 56.4607C251.962 56.1504 251.72 55.9078 251.409 55.7329C251.104 55.5538 250.748 55.4642 250.342 55.4642C249.918 55.4642 249.542 55.5625 249.215 55.7592C248.892 55.9515 248.638 56.2115 248.455 56.5393C248.272 56.8628 248.178 57.2233 248.173 57.6211V59.2666C248.173 59.7649 248.265 60.1954 248.448 60.5582C248.636 60.9209 248.9 61.2006 249.241 61.3973C249.581 61.594 249.986 61.6923 250.453 61.6923C250.763 61.6923 251.047 61.6486 251.305 61.5612C251.562 61.4738 251.783 61.3427 251.966 61.1679C252.149 60.993 252.289 60.7789 252.385 60.5254L254.966 60.6958C254.836 61.3165 254.567 61.8584 254.161 62.3217C253.759 62.7806 253.239 63.139 252.601 63.3969C251.969 63.6504 251.237 63.7771 250.407 63.7771Z" fill="#2B2B2B"/>
<path d="M256.846 63.5804V53.5104H259.552V55.2674H259.656C259.84 54.6424 260.148 54.1704 260.58 53.8514C261.013 53.528 261.51 53.3662 262.074 53.3662C262.214 53.3662 262.364 53.375 262.526 53.3924C262.688 53.41 262.829 53.434 262.952 53.4646V55.9428C262.821 55.9034 262.639 55.8684 262.408 55.8378C262.177 55.8072 261.965 55.7919 261.772 55.7919C261.362 55.7919 260.995 55.8815 260.672 56.0607C260.354 56.2355 260.1 56.4803 259.912 56.795C259.729 57.1097 259.637 57.4724 259.637 57.8833V63.5804H256.846Z" fill="#2B2B2B"/>
<path d="M28.1026 99.2669C23.659 99.2669 19.6959 98.5654 16.2131 97.1631C12.7303 95.8016 9.78791 93.8185 7.38596 91.2139C5.02406 88.57 3.20259 85.3446 1.92156 81.5385C0.680559 77.6923 0.0600586 73.3253 0.0600586 68.4376C0.0600586 65.7533 0.240204 62.9086 0.600494 59.9039C1.00081 56.8991 1.6013 53.8542 2.40194 50.7693C3.64294 45.8814 5.26425 41.254 7.26586 36.887C9.26748 32.48 11.5693 28.4135 14.1714 24.6876C16.8136 20.9616 19.6959 17.5962 22.8184 14.5914C25.981 11.5465 29.3036 8.96234 32.7864 6.83897C36.2692 4.71557 39.8921 3.09297 43.6552 1.97118C47.4182 0.80932 51.2413 0.228394 55.1245 0.228394C56.9659 0.228394 58.8274 0.448746 60.7089 0.889451C62.5904 1.33016 64.2718 2.07134 65.753 3.11301C67.2742 4.11461 68.4952 5.47679 69.4159 7.19955C70.3767 8.88226 70.8571 10.9856 70.8571 13.5096C70.8571 15.7533 70.5168 17.8366 69.8363 19.7596C69.1957 21.6426 68.275 23.3854 67.074 24.988C65.9131 26.5505 64.552 27.9928 62.9907 29.315C61.4295 30.637 59.7482 31.8189 57.9467 32.8606L56.8658 31.3582C60.1084 28.754 62.4904 25.8894 64.0115 22.7645C65.5728 19.5994 66.3534 16.2941 66.3534 12.8486C66.3534 9.2428 65.5128 6.61862 63.8314 4.97599C62.1901 3.33336 59.7681 2.51204 56.5656 2.51204C52.4823 2.51204 48.3189 3.734 44.0756 6.17791C39.8721 8.58172 35.8289 11.9071 31.9457 16.1539C28.0626 20.4006 24.4997 25.4086 21.2571 31.1779C18.0145 36.9071 15.3323 43.0969 13.2107 49.7476C11.8496 54.0345 10.8087 58.2613 10.0881 62.4279C9.36756 66.5545 9.0073 70.4207 9.0073 74.0265C9.0073 88.89 15.6726 96.3223 29.0034 96.3223C36.6095 96.3223 43.6152 93.9185 50.0203 89.1108C56.4255 84.2631 62.4703 76.8309 68.1549 66.8149L71.2774 61.2861L72.8988 62.4279L69.7762 67.9568C66.7337 73.3253 63.6313 77.9731 60.4687 81.8993C57.3062 85.8254 54.0236 89.0708 50.6208 91.6346C47.218 94.1985 43.6552 96.1016 39.9322 97.3439C36.2092 98.6262 32.266 99.2669 28.1026 99.2669Z" fill="#2B2B2B"/>
</svg>
