<svg width="24" height="25" viewBox="0 0 24 25" fill="none" xmlns="http://www.w3.org/2000/svg">
<mask id="mask0_216_1453" style="mask-type:alpha" maskUnits="userSpaceOnUse" x="0" y="0" width="24" height="25">
<rect y="0.25" width="24" height="24" fill="#D9D9D9"/>
</mask>
<g mask="url(#mask0_216_1453)">
<path d="M18 21.25L22 17.25L20.6 15.85L19 17.45V13.275H17V17.45L15.4 15.85L14 17.25L18 21.25ZM14 24.25V22.25H22V24.25H14ZM6 20.25C5.45 20.25 4.97917 20.0542 4.5875 19.6625C4.19583 19.2708 4 18.8 4 18.25V4.25C4 3.7 4.19583 3.22917 4.5875 2.8375C4.97917 2.44583 5.45 2.25 6 2.25H13L19 8.25V11.275H17V9.25H12V4.25H6V18.25H12V20.25H6Z" fill="#124559"/>
</g>
</svg>
